<svg role="img" viewBox="0 0 24 24" xmlns="http://www.w3.org/2000/svg" aria-label="GitHub" fill="#000000">
  <title>GitHub</title>
  <path d="M12 .297c-6.63 0-12 5.373-12 12 0 5.302 3.438 9.8 8.205 11.387.6.113.82-.258.82-.577 0-.285-.01-1.04-.015-2.04-3.338.724-4.042-1.61-4.042-1.61-.546-1.387-1.333-1.757-1.333-1.757-1.089-.745.083-.73.083-.73 1.205.085 1.84 1.238 1.84 1.238 1.07 1.835 2.807 1.305 3.492.998.108-.775.418-1.305.76-1.605-2.665-.305-5.466-1.332-5.466-5.93 0-1.31.468-2.381 1.235-3.221-.124-.304-.536-1.527.117-3.176 0 0 1.008-.322 3.301 1.23a11.52 11.52 0 0 1 3.003-.404c1.019.005 2.047.138 3.003.404 2.291-1.552 3.297-1.23 3.297-1.23.655 1.649.243 2.872.12 3.176.77.84 1.233 1.911 1.233 3.221 0 4.61-2.807 5.624-5.48 5.921.43.372.823 1.102.823 2.222 0 1.606-.015 2.901-.015 3.293 0 .322.216.694.825.576C20.565 22.092 24 17.593 24 12.297c0-6.627-5.373-12-12-12z"/>
</svg>

