<svg xmlns="http://www.w3.org/2000/svg" role="img" viewBox="0 0 24 24" aria-label="Instagram" fill="#000000">
  <title>Instagram</title>
  <path d="M12 2.163c3.204 0 3.584.012 4.85.07 1.366.062 2.633.35 3.608 1.325.975.975 1.263 2.242 1.325 3.608.058 1.266.07 1.646.07 4.85s-.012 3.584-.07 4.85c-.062 1.366-.35 2.633-1.325 3.608-.975.975-2.242 1.263-3.608 1.325-1.266.058-1.646.07-4.85.07s-3.584-.012-4.85-.07c-1.366-.062-2.633-.35-3.608-1.325-.975-.975-1.263-2.242-1.325-3.608C2.175 15.747 2.163 15.367 2.163 12s.012-3.584.07-4.85c.062-1.366.35-2.633 1.325-3.608.975-.975 2.242-1.263 3.608-1.325C8.416 2.175 8.796 2.163 12 2.163zm0-2.163C8.741 0 8.332.014 7.052.072 5.773.13 4.612.428 3.678 1.362 2.744 2.296 2.446 3.457 2.388 4.736 2.33 6.016 2.316 6.426 2.316 9.684v4.632c0 3.258.014 3.668.072 4.948.058 1.279.356 2.44 1.29 3.374.934.934 2.095 1.232 3.374 1.29 1.28.058 1.689.072 4.948.072s3.668-.014 4.948-.072c1.279-.058 2.44-.356 3.374-1.29.934-.934 1.232-2.095 1.29-3.374.058-1.28.072-1.689.072-4.948V9.684c0-3.258-.014-3.668-.072-4.948-.058-1.279-.356-2.44-1.29-3.374C19.388.428 18.227.13 16.948.072 15.668.014 15.259 0 12 0z"/>
  <path d="M12 5.838A6.162 6.162 0 1 0 12 18.162 6.162 6.162 0 1 0 12 5.838zm0 10.162A3.999 3.999 0 1 1 12 6a3.999 3.999 0 0 1 0 7.999z"/>
  <circle cx="18.406" cy="5.595" r="1.439"/>
</svg>

