<svg xmlns="http://www.w3.org/2000/svg" role="img" viewBox="0 0 32 32" aria-label="WhatsApp" fill="#000000">
  <title>WhatsApp</title>
  <path d="M19.11 17.48c-.27-.14-1.6-.79-1.85-.88-.25-.09-.43-.14-.62.14-.18.27-.71.88-.87 1.06-.16.18-.32.2-.6.07-.27-.14-1.16-.43-2.21-1.37-.82-.73-1.38-1.62-1.55-1.89-.16-.27-.02-.41.12-.54.12-.12.27-.32.41-.48.14-.16.18-.27.27-.45.09-.18.05-.34-.02-.48-.07-.14-.62-1.49-.85-2.03-.22-.53-.45-.46-.62-.46-.16 0-.34-.02-.52-.02-.18 0-.48.07-.73.34-.25.27-.96.94-.96 2.28s.99 2.65 1.13 2.84c.14.18 1.95 2.97 4.72 4.15.66.28 1.18.45 1.58.58.66.21 1.26.18 1.74.11.53-.08 1.6-.65 1.83-1.28.23-.63.23-1.17.16-1.28-.07-.11-.25-.18-.52-.32z"/>
  <path d="M26.01 5.99A13.93 13.93 0 0 0 16.05 2C8.86 2 3 7.86 3 15.05c0 2.29.6 4.49 1.75 6.45L3 30l8.67-1.69a13.98 13.98 0 0 0 6.38 1.55c7.19 0 13.05-5.86 13.05-13.05 0-3.49-1.36-6.77-3.73-9.16zm-9.96 21.1c-2.22 0-4.4-.6-6.3-1.73l-.45-.27-5.15 1 1.02-5.03-.3-.47a11.98 11.98 0 0 1-1.9-6.53C3.97 8.96 9.93 3 16.98 3c3.22 0 6.25 1.26 8.53 3.54a11.98 11.98 0 0 1 3.52 8.53c0 7.04-5.96 13.01-13.98 13.01z"/>
</svg>

